<svg width="17" height="17" viewBox="0 0 17 17" fill="none" xmlns="http://www.w3.org/2000/svg">
<path d="M5.93761 7.22109C6.03265 7.16623 6.11156 7.08731 6.16642 6.99227C6.22127 6.89723 6.25014 6.78942 6.25011 6.67969V1.05469C6.24956 0.955043 6.22518 0.856976 6.17902 0.768665C6.13286 0.680355 6.06626 0.604362 5.98476 0.547024C5.90326 0.489685 5.80924 0.452664 5.71053 0.439048C5.61181 0.425432 5.51128 0.435616 5.4173 0.46875C3.59307 1.11439 2.05896 2.38957 1.09075 4.06505C0.122549 5.74054 -0.216246 7.70645 0.135271 9.60938C0.153491 9.70778 0.195075 9.80037 0.256525 9.87936C0.317975 9.95834 0.397495 10.0214 0.488396 10.0633C0.570314 10.1016 0.659682 10.1213 0.750114 10.1211C0.859812 10.1211 0.967589 10.0923 1.06261 10.0375L5.93761 7.22109ZM5.00011 2.00156V6.31875L1.25949 8.47734C1.25011 8.35937 1.25011 8.24063 1.25011 8.125C1.25122 6.85809 1.6019 5.61606 2.26355 4.53566C2.92519 3.45525 3.87213 2.57837 5.00011 2.00156ZM15.1829 4.10312C15.1759 4.08906 15.1689 4.07422 15.1603 4.06016C15.1517 4.04609 15.1446 4.03438 15.1361 4.02188C14.4197 2.79828 13.3957 1.78334 12.1659 1.07782C10.936 0.372292 9.54298 0.000723448 8.12511 0C7.95935 0 7.80038 0.065848 7.68317 0.183058C7.56596 0.300268 7.50011 0.45924 7.50011 0.625V7.79922L1.34308 11.3852C1.27164 11.4266 1.2091 11.4817 1.1591 11.5475C1.1091 11.6132 1.07262 11.6882 1.05177 11.7681C1.03092 11.848 1.02612 11.9312 1.03763 12.013C1.04915 12.0948 1.07676 12.1735 1.11886 12.2445C2.0222 13.7828 3.40668 14.981 5.05865 15.6543C6.71061 16.3275 8.53824 16.4384 10.2595 15.9698C11.9807 15.5012 13.4999 14.4791 14.5826 13.0614C15.6653 11.6436 16.2512 9.90889 16.2501 8.125C16.2519 6.71416 15.884 5.32747 15.1829 4.10312ZM8.75011 1.27813C9.74136 1.36937 10.701 1.67465 11.5628 2.17291C12.4245 2.67117 13.1679 3.35052 13.7415 4.16406L8.75011 7.07109V1.27813ZM8.12511 15C7.03403 14.9972 5.95912 14.7361 4.98836 14.238C4.01759 13.7399 3.17857 13.019 2.53996 12.1344L8.43058 8.70391L8.44777 8.69297L14.3673 5.24531C14.8505 6.29277 15.0623 7.44496 14.9833 8.59578C14.9043 9.74659 14.5371 10.859 13.9153 11.8307C13.2935 12.8023 12.4373 13.6018 11.4255 14.1557C10.4136 14.7095 9.27864 14.9999 8.12511 15Z" fill="#1C1C1C"/>
</svg>
